#N canvas 994 166 568 675 10;
#X obj 91 350 folder_list;
#X obj 159 413 counter;
#X msg 159 389 set 1;
#X obj 105 608 msgfile;
#X msg 91 436 add \$1;
#X msg 48 438 clear;
#X obj 91 7 inlet;
#X msg 179 576 goto \$1;
#X msg 143 576 this;
#X msg 159 608 print;
#X obj 105 649 print;
#X obj 91 299 route symbol bang;
#X obj 145 649 outlet;
#X text 206 298 <-- sorts bangs (output) from symbols (set);
#X text 201 608 <-- check what's loaded;
#X text 5 648 for testing -->;
#X text 191 648 <-- outputs filename;
#X obj 140 502 counter;
#X obj 132 8 r lb2;
#X msg 336 389 \; pd quit \;;
#X obj 267 83 counter;
#X obj 319 83 r lb1;
#X obj 336 332 t b b;
#X obj 363 367 s write;
#X obj 202 532 moses;
#X obj 140 549 t f b a;
#X obj 159 448 t b f f b;
#X obj 91 377 t a b;
#X obj 76 320 t b a b b b;
#X obj 140 525 moses 0;
#X obj 204 506 - 1;
#X msg 210 477 min -1;
#X obj 244 557 delay 1000;
#X obj 63 250 bng 15 250 50 0 empty empty empty 17 7 0 10 -262144 -1
-1;
#X obj 15 350 delay 1500;
#X obj 267 109 select 1 2 3 4;
#X obj 365 109 print CLASS;
#X msg 151 139 symbol audio_to_retrain/snare/*.*;
#X msg 163 189 symbol audio_to_retrain/hihat/*.*;
#X msg 179 239 symbol audio_to_retrain/tom/*.*;
#X msg 132 32 symbol audio_to_retrain/kick/*.*;
#X connect 0 0 27 0;
#X connect 1 0 26 0;
#X connect 2 0 1 0;
#X connect 3 0 12 0;
#X connect 3 0 10 0;
#X connect 4 0 3 0;
#X connect 5 0 3 0;
#X connect 6 0 11 0;
#X connect 7 0 3 0;
#X connect 8 0 3 0;
#X connect 9 0 3 0;
#X connect 11 0 28 0;
#X connect 11 1 17 0;
#X connect 17 0 29 0;
#X connect 18 0 40 0;
#X connect 20 0 35 0;
#X connect 20 0 36 0;
#X connect 21 0 20 2;
#X connect 22 0 19 0;
#X connect 22 1 23 0;
#X connect 24 1 32 0;
#X connect 25 0 24 0;
#X connect 25 1 8 0;
#X connect 25 2 7 0;
#X connect 26 0 17 2;
#X connect 26 1 17 4;
#X connect 26 2 30 0;
#X connect 26 3 31 0;
#X connect 27 0 4 0;
#X connect 27 1 1 0;
#X connect 28 0 11 0;
#X connect 28 1 0 0;
#X connect 28 2 2 0;
#X connect 28 3 5 0;
#X connect 28 4 1 2;
#X connect 29 1 25 0;
#X connect 30 0 24 1;
#X connect 31 0 17 0;
#X connect 32 0 20 0;
#X connect 33 0 11 0;
#X connect 35 0 37 0;
#X connect 35 1 38 0;
#X connect 35 2 39 0;
#X connect 35 3 22 0;
#X connect 37 0 11 0;
#X connect 38 0 11 0;
#X connect 39 0 11 0;
#X connect 40 0 11 0;
