#N canvas 384 354 628 485 10;
#X obj 106 143 folder_list;
#X obj 106 170 t a b;
#X obj 212 202 counter;
#X floatatom 212 240 5 0 0 0 - - -;
#X msg 212 173 set 1;
#X obj 120 393 msgfile;
#X msg 97 198 add \$1;
#X obj 106 115 t a b b;
#X msg 63 116 clear;
#X obj 106 7 inlet;
#X msg 182 365 goto \$1;
#X msg 145 366 this;
#X obj 154 344 t b a;
#X msg 174 393 print;
#X obj 120 434 print;
#X obj 106 92 route symbol bang;
#X obj 160 434 outlet;
#X text 249 238 <-- number of files;
#X text 216 92 <-- sorts bangs (output) from symbols (set);
#X text 216 393 <-- check what's loaded;
#X text 20 433 for testing -->;
#X text 206 433 <-- outputs filename;
#X msg 212 270 max \$1;
#X obj 155 295 counter;
#X obj 258 172 r lb1;
#X obj 147 8 r lb2;
#X msg 299 322 \; pd quit \;;
#X msg 164 257 min -1;
#X obj 155 320 moses 0;
#X msg 147 32 symbol audio_to_transcribe/*.wav;
#X connect 0 0 1 0;
#X connect 1 0 6 0;
#X connect 1 1 2 0;
#X connect 2 0 3 0;
#X connect 2 0 27 0;
#X connect 3 0 22 0;
#X connect 4 0 2 0;
#X connect 5 0 14 0;
#X connect 5 0 16 0;
#X connect 6 0 5 0;
#X connect 7 0 0 0;
#X connect 7 1 4 0;
#X connect 7 2 8 0;
#X connect 8 0 5 0;
#X connect 9 0 15 0;
#X connect 10 0 5 0;
#X connect 11 0 5 0;
#X connect 12 0 11 0;
#X connect 12 1 10 0;
#X connect 13 0 5 0;
#X connect 15 0 7 0;
#X connect 15 1 23 0;
#X connect 22 0 23 0;
#X connect 23 0 28 0;
#X connect 23 2 26 0;
#X connect 24 0 2 2;
#X connect 25 0 29 0;
#X connect 27 0 23 0;
#X connect 28 1 12 0;
#X connect 29 0 15 0;
