#N canvas 316 326 337 319 10;
#X obj -429 -77 inlet~;
#X obj -394 98 s b_RMS;
#X obj -318 18 loadbang;
#X obj -338 99 s b_bass;
#X obj -429 174 outlet;
#X obj -429 145 filter_bass_complex;
#X msg -318 43 35;
#X obj -419 44 biquad~;
#X obj -419 -33 loadbang;
#X obj -419 19 lowpass 90 20;
#X obj -339 -79 inlet;
#X text -354 -60 Onsets Kick;
#X text -279 92 Detected Earlier Kick;
#X obj -419 75 features_all_fast;
#X connect 0 0 5 0;
#X connect 0 0 7 0;
#X connect 2 0 6 0;
#X connect 5 0 4 0;
#X connect 6 0 13 2;
#X connect 7 0 13 0;
#X connect 8 0 9 0;
#X connect 9 0 7 0;
#X connect 10 0 13 1;
#X connect 13 0 5 2;
#X connect 13 1 1 0;
#X connect 13 2 5 1;
#X connect 13 3 3 0;
