#N canvas 392 141 202 273 10;
#X obj 23 172 outlet;
#X obj 22 198 bng 15 250 50 0 empty empty empty 17 7 0 10 -262144 -1
-1;
#X floatatom 40 198 5 0 0 0 - - -;
#X obj 23 -21 inlet;
#X obj 23 77 onlineClusterKNN;
#X obj 23 146 select 0;
#X obj 38 41 r sKNN;
#X connect 3 0 4 0;
#X connect 4 0 2 0;
#X connect 4 0 5 0;
#X connect 5 1 0 0;
#X connect 5 1 1 0;
#X connect 6 0 4 0;
