#N canvas 516 459 224 296 10;
#X obj 56 56 timbreID;
#X obj 20 152 outlet;
#X obj 78 152 outlet;
#N canvas 738 482 425 339 init 0;
#X obj 76 -359 loadbang;
#X obj 105 -239 delay 1000;
#X obj 133 -98 s tID_h;
#X obj -10 -99 s tID_h;
#X obj -6 -206 t b b b;
#X msg 13 -174 normalize 1;
#X obj -6 -234 delay 3000;
#X msg -32 -172 knn 5;
#X obj 76 -313 t b b b;
#X msg 105 -173 read_clusters_text database_best/hihat.txt;
#X msg 133 -128 read database_best/hihat.timid;
#X connect 0 0 8 0;
#X connect 1 0 9 0;
#X connect 4 0 7 0;
#X connect 4 1 5 0;
#X connect 5 0 3 0;
#X connect 6 0 4 0;
#X connect 7 0 3 0;
#X connect 8 0 6 0;
#X connect 8 1 1 0;
#X connect 8 2 10 0;
#X connect 9 0 2 0;
#X connect 10 0 2 0;
#X restore 12 -59 pd init;
#X obj 56 22 r tID_h;
#X obj 20 126 select 1;
#X obj 20 177 bng 15 250 50 0 empty empty empty 17 7 0 10 -262144 -1
-1;
#X floatatom 38 177 5 0 0 0 - - -;
#X obj 78 -59 inlet;
#X obj 84 84 print hihat;
#X connect 0 0 5 0;
#X connect 0 0 7 0;
#X connect 0 2 2 0;
#X connect 0 4 9 0;
#X connect 4 0 0 0;
#X connect 5 1 1 0;
#X connect 5 1 6 0;
#X connect 8 0 0 1;
