#N canvas 1204 67 571 579 10;
#X msg 44 37 1 2 3;
#X obj 72 128 featureWeightedMean 3 3;
#X obj 44 63 t b a;
#X obj 75 160 print output;
#X msg 98 36 print;
#X obj 44 93 delay 30;
#X msg 151 62 num_frames 2;
#X msg 152 36 length 4;
#X msg 153 90 2 1 3 4;
#X connect 0 0 2 0;
#X connect 1 0 3 0;
#X connect 2 0 5 0;
#X connect 2 1 1 0;
#X connect 4 0 1 0;
#X connect 5 0 1 0;
#X connect 6 0 1 0;
#X connect 7 0 1 0;
#X connect 8 0 1 0;
