#N canvas 742 59 315 343 10;
#X obj 23 -26 inlet;
#X msg 23 166 1;
#X msg 55 166 0;
#X obj 23 232 t b b;
#X obj 205 177 f;
#X obj 235 177 + 1;
#X obj 23 92 t b b;
#X obj 23 270 outlet;
#X obj 86 167 / 44.1;
#X obj 23 202 metro 11.61;
#X obj 220 -33 inlet;
#X obj 220 55 t b b;
#X obj 85 -29 loadbang;
#X obj 232 278 outlet;
#X obj 205 236 t b b;
#X obj 85 81 /;
#X obj 85 -8 t b b;
#X obj 119 40 t a a;
#X obj 205 208 select 4;
#X msg 220 146 1;
#X msg 120 18 4;
#X msg 84 19 2050;
#X connect 0 0 6 0;
#X connect 1 0 9 0;
#X connect 2 0 9 0;
#X connect 3 0 7 0;
#X connect 3 1 4 0;
#X connect 4 0 5 0;
#X connect 4 0 18 0;
#X connect 5 0 4 1;
#X connect 6 0 1 0;
#X connect 6 1 19 0;
#X connect 8 0 9 1;
#X connect 9 0 3 0;
#X connect 10 0 11 0;
#X connect 11 0 19 0;
#X connect 11 1 2 0;
#X connect 12 0 16 0;
#X connect 14 0 2 0;
#X connect 14 1 13 0;
#X connect 15 0 8 0;
#X connect 16 0 21 0;
#X connect 16 1 20 0;
#X connect 17 0 15 1;
#X connect 17 1 18 1;
#X connect 18 0 14 0;
#X connect 19 0 4 1;
#X connect 20 0 17 0;
#X connect 21 0 15 0;
