#N canvas 803 571 309 325 10;
#X obj -16 216 outlet;
#X obj -16 -69 inlet~;
#X obj -16 123 t b b;
#X obj 11 149 f;
#X obj 11 172 s otime;
#X obj 26 123 r ptime;
#X obj -16 35 aubioOnset~ hfc 1024 256 -80 0.5;
#X connect 1 0 6 0;
#X connect 2 0 0 0;
#X connect 2 1 3 0;
#X connect 3 0 4 0;
#X connect 5 0 3 1;
#X connect 6 0 2 0;
