#N canvas 456 407 429 386 10;
#X msg 39 75 1;
#X msg 111 125 1;
#X msg 201 177 1;
#X msg 239 177 2;
#X obj 38 54 r b_bass;
#X obj 111 55 r b_snare;
#X obj 201 56 r b_hihat;
#X obj 131 316 outlet~;
#X obj 72 17 inlet;
#X obj 144 17 inlet;
#X obj 234 17 inlet;
#X obj 131 285 *~ 2;
#X obj 39 101 efficient-drum/efficient-kick;
#X obj 111 149 efficient-drum/efficient-snare;
#X obj 201 207 efficient-drum/efficient-fmhh;
#X obj 201 248 *~ 0.4;
#X obj 111 218 *~ 0.4;
#X obj 39 189 *~ 0.4;
#X connect 0 0 12 0;
#X connect 1 0 13 0;
#X connect 2 0 14 0;
#X connect 3 0 14 0;
#X connect 4 0 0 0;
#X connect 5 0 1 0;
#X connect 6 0 2 0;
#X connect 8 0 17 1;
#X connect 9 0 16 1;
#X connect 10 0 15 1;
#X connect 11 0 7 0;
#X connect 12 0 17 0;
#X connect 13 0 16 0;
#X connect 14 0 15 0;
#X connect 15 0 11 0;
#X connect 16 0 11 0;
#X connect 17 0 11 0;
