#N canvas 0 22 772 494 10;
#X obj 42 20 inlet;
#X obj 42 46 openpanel;
#X obj 42 95 soundfiler;
#X obj 60 125 s sampleSize;
#X obj 42 150 expr 44100 / $f1;
#X obj 42 202 phasor~;
#X obj 42 237 *~;
#X obj 92 219 r sampleSize;
#X obj 42 329 tabread4~ sfile;
#X obj 42 364 outlet~;
#X obj 290 300 snapshot~;
#X obj 290 255 tgl 15 0 empty empty empty 17 7 0 10 -262144 -1 -1 1
1;
#X obj 290 374 outlet;
#X text 44 381 Audio;
#X text 251 389 current playing time;
#X msg 417 91 0;
#X text 304 45 play;
#X text 399 43 stop;
#X obj 299 19 inlet;
#X obj 390 16 inlet;
#X obj 390 59 t b b;
#X obj 299 61 t b b;
#X obj 297 174 f;
#X obj 290 277 metro 50;
#X obj 290 207 loadbang;
#X floatatom 326 92 12 0 0 0 - - -;
#X obj 388 136 t a a;
#X msg 290 232 1;
#X obj 290 349 / 44100;
#X obj 411 366 outlet;
#X text 398 386 file name;
#X obj 326 113 t f;
#X msg 42 70 read -resize -maxsize 9.2e+08 \$1 sfile;
#N canvas 0 22 450 300 (subpatch) 0;
#X array sfile 302706 float 2;
#X coords 0 1 302706 -1 200 140 1;
#X restore 475 33 graph;
#X connect 0 0 1 0;
#X connect 1 0 32 0;
#X connect 1 0 29 0;
#X connect 2 0 3 0;
#X connect 2 0 4 0;
#X connect 4 0 5 0;
#X connect 4 0 25 0;
#X connect 5 0 6 0;
#X connect 6 0 8 0;
#X connect 6 0 10 0;
#X connect 7 0 6 1;
#X connect 8 0 9 0;
#X connect 10 0 28 0;
#X connect 11 0 23 0;
#X connect 15 0 26 0;
#X connect 18 0 21 0;
#X connect 19 0 20 0;
#X connect 20 0 22 0;
#X connect 20 1 15 0;
#X connect 21 0 22 0;
#X connect 21 1 25 0;
#X connect 22 0 5 0;
#X connect 23 0 10 0;
#X connect 24 0 27 0;
#X connect 25 0 31 0;
#X connect 26 0 5 1;
#X connect 26 1 22 1;
#X connect 27 0 11 0;
#X connect 28 0 12 0;
#X connect 31 0 22 1;
#X connect 32 0 2 0;
