#N canvas 787 324 327 356 10;
#X declare -path abstractions -path data;
#X obj 1 -12 s ptime;
#X floatatom 53 -38 7 0 0 0 - - -;
#X obj 53 -12 s file;
#N canvas 72 606 574 209 init 0;
#X obj 46 57 t b b b b;
#X msg 72 148 \; pd dsp 1 \;;
#X obj 31 129 s lb4;
#X obj 138 97 s lb1;
#X obj 118 127 s lb2;
#X obj 203 162 declare -path abstractions -path data;
#X obj 46 36 loadbang;
#X obj 72 187 print;
#X connect 0 0 2 0;
#X connect 0 1 1 0;
#X connect 0 2 4 0;
#X connect 0 3 3 0;
#X connect 1 0 7 0;
#X connect 6 0 0 0;
#X restore 73 -134 pd init;
#X obj -37 -38 oneshotplayer;
#N canvas 1032 62 245 340 next_file 0;
#X obj 76 272 outlet;
#X obj 8 22 inlet;
#X obj 8 273 outlet;
#X obj 8 224 delay 100;
#X obj 54 80 t b;
#X obj 8 50 route bang start;
#X obj 8 164 batch_file_train;
#X obj 8 195 t b a;
#X obj 54 116 delay 9000;
#X connect 1 0 5 0;
#X connect 3 0 2 0;
#X connect 4 0 8 0;
#X connect 5 0 6 0;
#X connect 5 1 4 0;
#X connect 6 0 7 0;
#X connect 7 0 3 0;
#X connect 7 1 0 0;
#X connect 8 0 6 0;
#X restore -38 -91 pd next_file;
#X msg -38 -122 start;
#X obj -38 -152 r lb4;
#X obj -38 -66 t b b;
#X obj 158 -134 bng 15 250 50 0 empty write write_features 17 7 0 10
-262144 -1 -1;
#N canvas 260 186 450 300 write_features 0;
#X obj 50 33 inlet;
#X obj 50 62 t b b b;
#X obj 50 240 s tID_b;
#X obj 69 177 s tID_s;
#X obj 89 115 s tID_h;
#X msg 91 88 write database_best/hihat.timid;
#X msg 69 149 write database_best/snare.timid;
#X msg 50 211 write database_best/bass.timid;
#X connect 0 0 1 0;
#X connect 1 0 7 0;
#X connect 1 1 6 0;
#X connect 1 2 5 0;
#X connect 5 0 4 0;
#X connect 6 0 3 0;
#X connect 7 0 2 0;
#X restore 158 -113 pd write_features;
#X obj -36 137 timbreID;
#X obj 22 137 timbreID;
#X obj 79 137 timbreID;
#X obj -32 102 r tID_b;
#X obj 78 102 r tID_h;
#X obj 21 102 r tID_s;
#X obj 158 -80 bng 15 250 50 0 empty clear clear 17 7 0 10 -262144
-1 -1;
#N canvas 0 22 201 219 clear 0;
#X obj 40 23 inlet;
#X obj 40 144 s tID_b;
#X obj 59 120 s tID_s;
#X obj 79 98 s tID_h;
#X msg 40 49 clear;
#X obj 40 74 t a a a;
#X connect 0 0 4 0;
#X connect 4 0 5 0;
#X connect 5 0 1 0;
#X connect 5 1 2 0;
#X connect 5 2 3 0;
#X restore 158 -60 pd clear;
#X obj -4 175 print KNN;
#X obj -37 59 compute_features_train_best;
#X connect 4 0 20 0;
#X connect 4 1 5 0;
#X connect 4 2 0 0;
#X connect 4 2 1 0;
#X connect 4 3 2 0;
#X connect 5 0 8 0;
#X connect 5 1 4 2;
#X connect 6 0 5 0;
#X connect 7 0 6 0;
#X connect 8 0 20 1;
#X connect 8 1 4 0;
#X connect 9 0 10 0;
#X connect 11 0 19 0;
#X connect 14 0 11 0;
#X connect 15 0 13 0;
#X connect 16 0 12 0;
#X connect 17 0 18 0;
#X connect 20 0 11 0;
#X connect 20 1 12 0;
#X connect 20 2 13 0;
