#N canvas 316 326 339 360 10;
#X obj -414 -79 inlet~;
#X obj -396 47 biquad~;
#X obj -396 -10 loadbang;
#X obj -370 146 s h_RMS;
#X obj -396 21 highpass 7000 30;
#X obj -285 146 s b_hihat;
#X obj -284 61 loadbang;
#X obj -414 223 outlet;
#X obj -414 197 filter_hihat_complex;
#X msg -284 86 35;
#X obj -268 -80 inlet;
#X text -288 -62 Hi-hat onsets;
#X text -280 119 Detected Earlier Hihat;
#X obj -402 120 features_all_fast;
#X connect 0 0 1 0;
#X connect 0 0 8 0;
#X connect 1 0 13 0;
#X connect 2 0 4 0;
#X connect 4 0 1 0;
#X connect 6 0 9 0;
#X connect 8 0 7 0;
#X connect 9 0 13 2;
#X connect 10 0 13 1;
#X connect 13 0 8 2;
#X connect 13 1 3 0;
#X connect 13 2 8 1;
#X connect 13 3 5 0;
