#N canvas 842 306 285 312 10;
#X obj -463 -90 inlet~;
#X obj -411 78 s s_RMS;
#X obj -345 81 s b_snare;
#X obj -331 -9 loadbang;
#X obj -459 154 outlet;
#X obj -459 127 filter_snare_complex;
#X msg -331 16 35;
#X obj -443 24 biquad~;
#X obj -443 -53 loadbang;
#X obj -443 -1 bandpass 280 40;
#X obj -356 -90 inlet;
#X text -376 -72 Onsets Snare;
#X text -283 72 Detected Earlier Snare;
#X obj -443 52 features_all_best;
#X connect 0 0 5 0;
#X connect 0 0 7 0;
#X connect 3 0 6 0;
#X connect 5 0 4 0;
#X connect 6 0 13 2;
#X connect 7 0 13 0;
#X connect 8 0 9 0;
#X connect 9 0 7 0;
#X connect 10 0 13 1;
#X connect 13 0 5 2;
#X connect 13 1 1 0;
#X connect 13 2 5 1;
#X connect 13 3 2 0;
