#N canvas 957 196 709 395 10;
#X obj -432 -77 inlet~;
#X obj -411 253 outlet;
#X obj -185 253 outlet;
#X obj 42 247 outlet;
#X obj -412 53 biquad~;
#X obj -412 -24 loadbang;
#X obj -401 4 r lp1;
#X obj -359 3 r lp2;
#X obj -186 53 biquad~;
#X obj -186 -24 loadbang;
#X obj 41 49 biquad~;
#X obj 41 -29 loadbang;
#X obj -175 4 r bp1;
#X obj -135 5 r bp2;
#X obj -186 28 bandpass 280 40;
#X obj 52 -1 r hp1;
#X obj 94 -2 r hp2;
#X obj -412 28 lowpass 90 20;
#X obj -342 249 s b_RMS;
#X obj -116 250 s s_RMS;
#X obj 97 248 s h_RMS;
#X obj -232 -74 inlet;
#X obj 41 23 highpass 7000 30;
#X obj -342 190 delay 14;
#X obj -135 190 delay 14;
#X obj 83 185 delay 14;
#X obj -411 226 features_all_best;
#X obj -185 225 features_all_best;
#X obj 42 220 features_all_best;
#X connect 0 0 4 0;
#X connect 0 0 8 0;
#X connect 0 0 10 0;
#X connect 4 0 26 0;
#X connect 5 0 17 0;
#X connect 6 0 17 0;
#X connect 7 0 17 1;
#X connect 8 0 27 0;
#X connect 9 0 14 0;
#X connect 10 0 28 0;
#X connect 11 0 22 0;
#X connect 12 0 14 0;
#X connect 13 0 14 1;
#X connect 14 0 8 0;
#X connect 15 0 22 0;
#X connect 16 0 22 1;
#X connect 17 0 4 0;
#X connect 21 0 23 0;
#X connect 21 0 24 0;
#X connect 21 0 25 0;
#X connect 22 0 10 0;
#X connect 23 0 26 1;
#X connect 24 0 27 1;
#X connect 25 0 28 1;
#X connect 26 0 1 0;
#X connect 26 1 18 0;
#X connect 27 0 2 0;
#X connect 27 1 19 0;
#X connect 28 0 3 0;
#X connect 28 1 20 0;
