#N canvas 872 212 242 261 10;
#X obj 56 75 timbreID;
#X obj 20 171 outlet;
#X obj 78 171 outlet;
#X obj 56 40 r tID_s;
#X obj 20 145 select 1;
#X obj 78 -38 inlet;
#N canvas 738 482 425 339 init 0;
#X obj 76 -359 loadbang;
#X obj 105 -239 delay 1000;
#X obj -6 -206 t b b b;
#X msg 13 -174 normalize 1;
#X obj -6 -234 delay 3000;
#X msg -32 -172 knn 5;
#X obj 76 -313 t b b b;
#X obj -10 -99 s tID_s;
#X obj 133 -98 s tID_s;
#X msg 105 -173 read_clusters_text database_best/snare.txt;
#X msg 133 -128 read database_best/snare.timid;
#X connect 0 0 6 0;
#X connect 1 0 9 0;
#X connect 2 0 5 0;
#X connect 2 1 3 0;
#X connect 3 0 7 0;
#X connect 4 0 2 0;
#X connect 5 0 7 0;
#X connect 6 0 4 0;
#X connect 6 1 1 0;
#X connect 6 2 10 0;
#X connect 9 0 8 0;
#X connect 10 0 8 0;
#X restore 9 -31 pd init;
#X connect 0 0 4 0;
#X connect 0 2 2 0;
#X connect 3 0 0 0;
#X connect 4 1 1 0;
#X connect 5 0 0 1;
