#N canvas 919 390 375 508 10;
#X msg 90 213 1;
#X obj 37 248 spigot;
#X obj 10 188 t b b;
#X msg 10 212 0;
#X obj 87 445 outlet;
#X text 238 -34 onset;
#X text 285 -34 features;
#X obj 238 -13 inlet;
#X obj 291 -14 inlet;
#X obj 87 422 spigot;
#X msg 81 373 1;
#X obj 93 186 t b b;
#X msg 120 213 0;
#X obj 10 -26 inlet~;
#X obj 10 43 biquad~;
#X obj 55 -26 loadbang;
#X obj 10 156 onebang;
#X obj 29 105 loadbang;
#X obj 30 129 delay 20;
#X obj 12 355 s b_snare;
#X obj 37 299 timer;
#X obj 37 275 t b b;
#X obj 37 324 moses 22;
#X obj 82 350 t b;
#X obj 55 15 highpass 9000 30;
#X obj 10 78 aubioOnset~ complex 1024 256 -120 0.4;
#X connect 0 0 1 1;
#X connect 1 0 21 0;
#X connect 2 0 3 0;
#X connect 2 1 1 0;
#X connect 3 0 1 1;
#X connect 7 0 11 0;
#X connect 8 0 9 0;
#X connect 9 0 4 0;
#X connect 10 0 9 1;
#X connect 11 0 0 0;
#X connect 11 1 12 0;
#X connect 12 0 9 1;
#X connect 13 0 14 0;
#X connect 14 0 25 0;
#X connect 15 0 24 0;
#X connect 16 0 18 0;
#X connect 16 0 2 0;
#X connect 17 0 16 1;
#X connect 18 0 16 1;
#X connect 20 0 22 0;
#X connect 21 0 20 0;
#X connect 21 1 20 1;
#X connect 22 0 19 0;
#X connect 22 1 23 0;
#X connect 23 0 10 0;
#X connect 24 0 14 0;
#X connect 25 0 16 0;
