#N canvas 242 210 734 392 10;
#X msg 269 272 random 0;
#X obj -89 339 outlet;
#X obj 119 341 outlet;
#X obj 334 339 outlet;
#X obj 369 173 biquad~;
#X obj 369 194 *~ 0.1;
#X obj 218 39 t b b b b;
#X obj 269 296 t a a a;
#X obj 50 101 t b b;
#X obj 34 124 del 5;
#X obj 235 102 t b b;
#X obj 223 123 del 5;
#X obj 469 101 t b b;
#X obj 457 122 del 5;
#X obj 369 12 noise~;
#X obj 34 170 t b b;
#X obj 223 175 t b b b;
#X obj 262 124 bandpass 280 40;
#X obj 77 124 lowpass 90 20;
#X obj 235 80 delay 140;
#X obj 51 79 delay 280;
#X obj 496 123 highpass 7000 30;
#X obj -89 248 compute_features_init_best;
#X obj 119 251 compute_features_init_best;
#X obj 334 250 compute_features_init_best;
#X obj 218 13 r lb4;
#X connect 0 0 7 0;
#X connect 4 0 5 0;
#X connect 5 0 22 0;
#X connect 5 0 23 0;
#X connect 5 0 24 0;
#X connect 6 0 20 0;
#X connect 6 1 19 0;
#X connect 6 2 12 0;
#X connect 6 3 0 0;
#X connect 7 0 1 0;
#X connect 7 1 2 0;
#X connect 7 2 3 0;
#X connect 8 0 9 0;
#X connect 8 1 18 0;
#X connect 9 0 15 0;
#X connect 10 0 11 0;
#X connect 10 1 17 0;
#X connect 11 0 16 0;
#X connect 12 0 13 0;
#X connect 12 1 21 0;
#X connect 13 0 24 1;
#X connect 14 0 4 0;
#X connect 15 0 22 1;
#X connect 15 1 23 1;
#X connect 16 0 22 1;
#X connect 16 1 23 1;
#X connect 16 2 24 1;
#X connect 17 0 4 0;
#X connect 18 0 4 0;
#X connect 19 0 10 0;
#X connect 20 0 8 0;
#X connect 21 0 4 0;
#X connect 22 0 1 0;
#X connect 22 1 2 0;
#X connect 23 0 1 0;
#X connect 23 1 2 0;
#X connect 23 2 3 0;
#X connect 24 2 3 0;
#X connect 25 0 6 0;
