#N canvas 0 55 1024 542 10;
#X obj 50 325 metro 1;
#X obj 50 398 f;
#X obj 143 409 moses 0;
#X msg 143 432 0;
#X obj 182 441 moses 44100;
#X obj 133 487 t f f;
#X obj 50 422 t f f;
#X obj 50 536 pack f f;
#X msg 50 567 \$1 \, \$2 1;
#X obj 143 384 + 44.1;
#X obj 50 622 vline~;
#X obj 246 414 r \$0-length;
#X obj 177 196 vsl 15 128 -4 4 0 0 empty empty empty 0 -9 0 10 -4160
-262144 -1 7937 1;
#X obj 176 144 loadbang;
#X obj 177 352 * 44.1;
#X floatatom 177 332 5 0 0 0 - - -;
#X msg 176 168 1;
#X msg 76 174 0;
#X obj 75 264 t f b b;
#X msg 114 292 0;
#X msg 106 324 0;
#X text 106 175 stop;
#X obj 107 214 r \$0-ended;
#X msg 107 234 0;
#X obj 272 505 s \$0-ended;
#X text 228 352 <- assumes 44100hz samplerate. adjust if different
;
#X obj 428 409 r \$0-started;
#X obj 512 408 r \$0-ended;
#X obj 406 175 soundfiler;
#X obj 406 200 s \$0-length;
#X obj 374 47 openpanel;
#X obj 406 100 pack s \$0;
#X msg 375 21 bang;
#X obj 320 200 s \$0-filename;
#X obj 374 80 t s s;
#X floatatom 480 201 15 0 0 0 - - -;
#X msg 50 22 1;
#X text 91 21 start / restart;
#X obj 77 91 s \$0-started;
#X obj 50 50 t b b;
#X obj 375 0 inlet;
#X obj 50 687 outlet~;
#X obj 50 -23 inlet;
#X obj 245 690 outlet;
#X obj 428 689 outlet;
#X obj 526 658 r \$0-filename;
#X obj 526 690 outlet;
#X obj 478 -5 inlet;
#X text 219 674 bang when ended;
#X text 418 672 playing time;
#X obj 339 25 bng 15 250 50 0 empty empty empty 17 7 0 10 -262144 -1
-1;
#X obj 428 519 snapshot~;
#X obj 428 464 tgl 15 0 empty empty empty 17 7 0 10 -262144 -1 -1 0
1;
#X msg 428 440 1;
#X obj 428 547 / 44100;
#X text 363 -19 load file or give file path;
#X obj 478 54 symbol;
#X msg 512 440 0;
#X obj 245 474 t b b;
#X obj 428 485 metro 5;
#X obj 245 595 del 200;
#X obj 50 0 delay 20;
#X obj 417 263 table \$0-sound1;
#X obj 50 661 tabread4~ \$0-sound1;
#X msg 406 151 read -resize -maxsize 9.2e+08 \$1 \$2-sound1;
#X connect 0 0 1 0;
#X connect 1 0 6 0;
#X connect 2 0 3 0;
#X connect 2 1 4 0;
#X connect 3 0 5 0;
#X connect 4 0 5 0;
#X connect 4 1 58 0;
#X connect 5 0 7 1;
#X connect 5 1 1 1;
#X connect 6 0 7 0;
#X connect 6 1 9 0;
#X connect 7 0 8 0;
#X connect 8 0 10 0;
#X connect 9 0 2 0;
#X connect 10 0 51 0;
#X connect 10 0 63 0;
#X connect 11 0 4 1;
#X connect 12 0 15 0;
#X connect 13 0 16 0;
#X connect 14 0 9 1;
#X connect 15 0 14 0;
#X connect 16 0 12 0;
#X connect 17 0 18 0;
#X connect 18 0 0 0;
#X connect 18 1 20 0;
#X connect 18 2 19 0;
#X connect 19 0 0 0;
#X connect 20 0 1 1;
#X connect 22 0 23 0;
#X connect 23 0 18 0;
#X connect 26 0 53 0;
#X connect 27 0 57 0;
#X connect 28 0 29 0;
#X connect 28 0 35 0;
#X connect 30 0 34 0;
#X connect 31 0 64 0;
#X connect 32 0 30 0;
#X connect 34 0 33 0;
#X connect 34 1 31 0;
#X connect 36 0 39 0;
#X connect 39 0 0 0;
#X connect 39 1 38 0;
#X connect 40 0 32 0;
#X connect 40 0 50 0;
#X connect 42 0 61 0;
#X connect 45 0 46 0;
#X connect 47 0 56 0;
#X connect 51 0 54 0;
#X connect 52 0 59 0;
#X connect 53 0 52 0;
#X connect 54 0 44 0;
#X connect 56 0 34 0;
#X connect 57 0 52 0;
#X connect 58 0 60 0;
#X connect 58 1 24 0;
#X connect 59 0 51 0;
#X connect 60 0 43 0;
#X connect 61 0 36 0;
#X connect 63 0 41 0;
#X connect 64 0 28 0;
