#N canvas 704 547 308 341 10;
#X obj -16 249 outlet;
#X obj -16 -69 inlet~;
#X obj -16 175 t b b;
#X obj 11 201 f;
#X obj 26 175 r ptime;
#X obj -16 2 biquad~;
#X obj 29 -67 loadbang;
#X obj 11 224 s sotime;
#X obj 48 129 onebang;
#X obj 67 80 loadbang;
#X obj 68 104 delay 8;
#X obj -17 34 aubioOnset~ complex 512 128 -70 0.7;
#X obj 30 -26 bandpass 280 40;
#X connect 1 0 5 0;
#X connect 2 0 0 0;
#X connect 2 1 3 0;
#X connect 3 0 7 0;
#X connect 4 0 3 1;
#X connect 5 0 11 0;
#X connect 6 0 12 0;
#X connect 8 0 10 0;
#X connect 8 0 2 0;
#X connect 9 0 8 1;
#X connect 10 0 8 1;
#X connect 11 0 8 0;
#X connect 12 0 5 0;
