#N canvas 431 187 463 351 10;
#X obj 308 310 outlet~;
#X obj 309 12 inlet;
#X msg 83 93 start;
#X msg 246 200 stop;
#X obj 28 16 inlet~;
#X obj 162 16 inlet;
#X obj 27 314 writesf~;
#X msg 162 171 open \$1;
#X obj 162 146 t a a;
#X obj 329 199 symbol;
#X obj 309 49 t b b b;
#X obj 83 16 inlet;
#X obj 83 54 delay 23;
#X obj 162 51 stripfilename -4;
#X obj 162 114 l2s;
#X obj 309 254 oneshotplayer1;
#X obj 328 141 delay 20;
#X obj 162 81 sprintf %s_t.wav;
#X connect 1 0 10 0;
#X connect 2 0 6 0;
#X connect 3 0 6 0;
#X connect 4 0 6 0;
#X connect 5 0 13 0;
#X connect 7 0 6 0;
#X connect 8 0 7 0;
#X connect 8 1 9 1;
#X connect 9 0 15 2;
#X connect 10 0 15 0;
#X connect 10 1 16 0;
#X connect 10 2 3 0;
#X connect 11 0 12 0;
#X connect 12 0 2 0;
#X connect 13 0 17 0;
#X connect 14 0 8 0;
#X connect 15 0 0 0;
#X connect 16 0 9 0;
#X connect 17 0 14 0;
