#N canvas 675 309 423 355 10;
#X obj 36 292 textfile;
#X obj 283 -18 inlet;
#X obj 328 -18 inlet;
#X obj 35 -21 inlet;
#X obj 36 16 route 1 2;
#X msg 136 292 print;
#X msg 283 121 add;
#X obj 283 149 pack s f;
#X msg 283 179 add2 \$2;
#X obj 158 -17 inlet;
#X obj 36 209 symbol;
#X msg 36 238 write \$1 cr;
#X obj 158 23 stripfilename -4;
#X obj 125 111 symbol;
#X obj 108 71 l2s;
#X obj 75 150 sprintf %s_%s.txt;
#X obj 75 109 symbol;
#X obj 36 71 t b b b;
#X obj 75 178 l2s;
#X obj 36 261 t a b;
#X obj 365 98 print;
#X obj 90 208 print;
#X obj 136 219 t b a b;
#X msg 175 249 0;
#X obj 211 247 t f;
#X connect 1 0 6 0;
#X connect 2 0 7 1;
#X connect 3 0 4 0;
#X connect 4 0 14 0;
#X connect 4 0 17 0;
#X connect 4 1 22 0;
#X connect 6 0 7 0;
#X connect 7 0 8 0;
#X connect 8 0 0 0;
#X connect 9 0 12 0;
#X connect 10 0 11 0;
#X connect 11 0 19 0;
#X connect 12 0 13 1;
#X connect 13 0 15 0;
#X connect 14 0 16 1;
#X connect 15 0 18 0;
#X connect 15 0 21 0;
#X connect 16 0 15 1;
#X connect 17 0 10 0;
#X connect 17 1 13 0;
#X connect 17 2 16 0;
#X connect 18 0 10 1;
#X connect 19 0 0 0;
#X connect 19 1 5 0;
#X connect 22 0 5 0;
#X connect 22 1 0 0;
#X connect 22 2 23 0;
#X connect 23 0 24 0;
