#N canvas 876 246 303 243 10;
#X obj -427 -76 inlet~;
#X obj -442 116 outlet;
#X obj -428 49 biquad~;
#X obj -422 -5 loadbang;
#X obj -396 116 s h_RMS;
#X obj -422 22 highpass 7000 30;
#X obj -337 115 s b_hihat;
#X obj -310 31 loadbang;
#X msg -310 56 58;
#X obj -360 -77 inlet;
#X text -378 -59 Onsets Hihat;
#X obj -428 90 features_all_fast;
#X connect 0 0 2 0;
#X connect 2 0 11 0;
#X connect 3 0 5 0;
#X connect 5 0 2 0;
#X connect 7 0 8 0;
#X connect 8 0 11 2;
#X connect 9 0 11 1;
#X connect 11 0 1 0;
#X connect 11 1 4 0;
#X connect 11 3 6 0;
