#N canvas 876 246 360 311 10;
#X obj -715 -392 inlet~;
#X obj -727 -254 outlet;
#X obj -679 -254 s s_RMS;
#X obj -616 -255 s b_snare;
#X obj -602 -332 loadbang;
#X msg -602 -307 58;
#X obj -711 -305 biquad~;
#X obj -708 -354 loadbang;
#X obj -708 -331 bandpass 280 40;
#X obj -633 -392 inlet;
#X text -643 -373 Onsets Snare;
#X obj -711 -280 features_all_best;
#X connect 0 0 6 0;
#X connect 4 0 5 0;
#X connect 5 0 11 2;
#X connect 6 0 11 0;
#X connect 7 0 8 0;
#X connect 8 0 6 0;
#X connect 9 0 11 1;
#X connect 11 0 1 0;
#X connect 11 1 2 0;
#X connect 11 3 3 0;
