#N canvas 910 138 682 360 10;
#X obj -148 -82 inlet;
#X obj -432 -77 inlet~;
#X obj -412 231 outlet;
#X obj -228 233 outlet;
#X obj -3 231 outlet;
#X obj -412 177 biquad~;
#X obj -412 100 loadbang;
#X obj -401 128 r lp1;
#X obj -359 127 r lp2;
#X obj -228 179 biquad~;
#X obj -228 102 loadbang;
#X obj -3 179 biquad~;
#X obj -3 101 loadbang;
#X obj -217 130 r bp1;
#X obj -177 131 r bp2;
#X obj -228 154 bandpass 280 40;
#X obj 8 129 r hp1;
#X obj 50 128 r hp2;
#X obj -412 152 lowpass 90 20;
#X obj -337 230 s b_RMS;
#X obj -153 232 s s_RMS;
#X obj 72 231 s h_RMS;
#X obj -153 -30 t b b b;
#X obj -316 148 loadbang;
#X msg -316 173 58;
#X obj -124 155 loadbang;
#X msg -124 180 58;
#X obj 110 150 loadbang;
#X msg 110 175 58;
#X obj -3 153 highpass 7000 30;
#X obj -412 204 features_all_fast;
#X obj -228 206 features_all_fast;
#X obj -3 204 features_all_fast;
#X connect 0 0 22 0;
#X connect 1 0 5 0;
#X connect 1 0 9 0;
#X connect 1 0 11 0;
#X connect 5 0 30 0;
#X connect 6 0 18 0;
#X connect 7 0 18 0;
#X connect 8 0 18 1;
#X connect 9 0 31 0;
#X connect 10 0 15 0;
#X connect 11 0 32 0;
#X connect 12 0 29 0;
#X connect 13 0 15 0;
#X connect 14 0 15 1;
#X connect 15 0 9 0;
#X connect 16 0 29 0;
#X connect 17 0 29 1;
#X connect 18 0 5 0;
#X connect 22 0 30 1;
#X connect 22 1 31 1;
#X connect 22 2 32 1;
#X connect 23 0 24 0;
#X connect 24 0 30 2;
#X connect 25 0 26 0;
#X connect 26 0 31 2;
#X connect 27 0 28 0;
#X connect 28 0 32 2;
#X connect 29 0 11 0;
#X connect 30 0 2 0;
#X connect 30 1 19 0;
#X connect 31 0 3 0;
#X connect 31 1 20 0;
#X connect 32 0 4 0;
#X connect 32 1 21 0;
