#N canvas 876 246 312 253 10;
#X obj -481 -81 inlet~;
#X obj -501 71 outlet;
#X obj -454 69 s b_RMS;
#X obj -379 -10 loadbang;
#X msg -379 15 58;
#X obj -398 69 s b_bass;
#X obj -479 16 biquad~;
#X obj -474 -35 loadbang;
#X obj -474 -9 lowpass 90 20;
#X obj -414 -82 inlet;
#X text -422 -61 Onsets Kick;
#X obj -479 46 features_all_best;
#X connect 0 0 6 0;
#X connect 3 0 4 0;
#X connect 4 0 11 2;
#X connect 6 0 11 0;
#X connect 7 0 8 0;
#X connect 8 0 6 0;
#X connect 9 0 11 1;
#X connect 11 0 1 0;
#X connect 11 1 2 0;
#X connect 11 3 5 0;
