#N canvas 392 141 251 241 10;
#X obj 25 166 outlet;
#X obj 26 -27 inlet;
#X obj 26 71 onlineClusterKNN;
#X obj 25 141 select 1;
#X obj 49 35 r bKNN;
#X connect 1 0 2 0;
#X connect 2 0 3 0;
#X connect 3 1 0 0;
#X connect 4 0 2 0;
