#N canvas 958 582 237 280 10;
#X obj 62 70 timbreID;
#X obj 61 141 outlet;
#X obj 62 37 r tID_b;
#X obj 61 116 select 1;
#X obj 84 -43 inlet;
#N canvas 738 482 425 339 init 0;
#X obj 76 -359 loadbang;
#X obj 105 -239 delay 1000;
#X obj -6 -206 t b b b;
#X msg 13 -174 normalize 1;
#X obj -6 -234 delay 3000;
#X msg -32 -172 knn 5;
#X obj 76 -313 t b b b;
#X obj 133 -98 s tID_b;
#X obj -10 -99 s tID_b;
#X msg 105 -173 read_clusters_text database_fast/bass.txt;
#X msg 133 -128 read database_fast/bass.timid;
#X connect 0 0 6 0;
#X connect 1 0 9 0;
#X connect 2 0 5 0;
#X connect 2 1 3 0;
#X connect 3 0 8 0;
#X connect 4 0 2 0;
#X connect 5 0 8 0;
#X connect 6 0 4 0;
#X connect 6 1 1 0;
#X connect 6 2 10 0;
#X connect 9 0 7 0;
#X connect 10 0 7 0;
#X restore 16 -36 pd init;
#X connect 0 0 3 0;
#X connect 2 0 0 0;
#X connect 3 1 1 0;
#X connect 4 0 0 1;
