#N canvas 177 134 868 689 10;
#X obj -360 177 inlet~;
#X obj 107 388 list append;
#X obj -362 622 list append;
#X obj -362 656 outlet;
#X obj -362 395 list append;
#X obj -210 595 list append;
#X obj -210 406 list append;
#X obj -55 571 list append;
#X obj -55 404 list append;
#X obj -55 327 specCentroid~ 2048;
#X obj -210 327 specRolloff~ 2048;
#X obj 272 387 list append;
#X obj 107 340 bfcc~ 2048 1;
#X obj 272 339 barkSpec~ 2048 1;
#X obj -362 329 specFlatness~ 2048;
#X obj -210 357 expr log10($f1+1);
#X obj -55 357 expr log10($f1+1);
#N canvas 0 22 251 239 RMS 0;
#X obj 38 103 f;
#X obj 29 21 inlet;
#X obj 38 151 outlet;
#X obj 83 66 env~ 2048;
#X obj 83 28 inlet~;
#X connect 0 0 2 0;
#X connect 1 0 0 0;
#X connect 3 0 0 1;
#X connect 4 0 3 0;
#X restore 134 215 pd RMS;
#X obj 188 628 outlet;
#X obj 107 546 list append;
#X obj -362 549 featureWeightedMean 10 2;
#X obj -210 549 featureWeightedMean 10 2;
#X obj -55 516 featureWeightedMean 10 2;
#X obj 107 516 featureWeightedMean 10 24;
#X obj 271 514 featureWeightedMean 10 24;
#X obj -26 10 inlet;
#X obj 244 156 spigot 0;
#X obj 27 188 t b b b b b b;
#X obj 245 212 t b b b b b;
#X obj -20 217 s \$0-bBRIG;
#X obj -19 238 s \$0-bROLL;
#X obj 51 239 s \$0-bCENT;
#X obj 61 218 s \$0-bBFCC;
#X obj 119 238 s \$0-bBARK;
#X obj -349 301 r \$0-bBRIG;
#X obj -197 299 r \$0-bROLL;
#X obj -42 299 r \$0-bCENT;
#X obj 120 312 r \$0-bBFCC;
#X obj 285 311 r \$0-bBARK;
#X obj 210 237 s \$0-close_gate5;
#X obj 319 237 s \$0-close_gate1;
#X obj 312 259 s \$0-close_gate2;
#X obj 257 280 s \$0-close_gate3;
#X obj 208 258 s \$0-close_gate4;
#X obj 134 262 s \$0-RMS;
#X obj 188 595 r \$0-RMS;
#X obj 335 363 r \$0-RMS;
#X obj 170 364 r \$0-RMS;
#X obj 7 379 r \$0-RMS;
#X obj -150 381 r \$0-RMS;
#X obj -299 367 r \$0-RMS;
#X obj -320 433 r \$0-close_gate5;
#X obj -178 433 r \$0-close_gate4;
#X obj -37 431 r \$0-close_gate3;
#X obj 136 429 r \$0-close_gate2;
#X obj 296 428 r \$0-close_gate1;
#X obj -26 65 timer;
#X obj 252 629 outlet;
#X obj 340 630 outlet;
#X obj -26 89 moses 36;
#X obj 19 11 inlet;
#X obj 27 111 t b b b;
#X obj -26 41 t b b;
#X obj 340 595 r \$0-oBefore;
#X obj 252 595 r \$0-ongoing;
#X obj 46 139 s \$0-ongoing;
#X obj -66 139 s \$0-oBefore;
#X msg -322 517 clear;
#X msg -174 516 clear;
#X msg -27 490 clear;
#X msg 144 490 clear;
#X msg 315 485 clear;
#X obj -322 489 r \$0-oBefore;
#X obj -174 490 r \$0-oBefore;
#X obj -27 465 r \$0-oBefore;
#X obj 144 465 r \$0-oBefore;
#X obj 315 460 r \$0-oBefore;
#X obj -26 111 t b b b;
#X obj 244 179 t b b;
#X obj 27 164 generate_bangs_best;
#X connect 0 0 10 0;
#X connect 0 0 9 0;
#X connect 0 0 12 0;
#X connect 0 0 13 0;
#X connect 0 0 14 0;
#X connect 0 0 17 1;
#X connect 1 0 23 0;
#X connect 2 0 3 0;
#X connect 4 0 20 0;
#X connect 5 0 2 1;
#X connect 6 0 21 0;
#X connect 7 0 5 1;
#X connect 8 0 22 0;
#X connect 9 0 16 0;
#X connect 10 0 15 0;
#X connect 11 0 24 0;
#X connect 12 0 1 0;
#X connect 13 0 11 0;
#X connect 14 0 4 0;
#X connect 15 0 6 0;
#X connect 16 0 8 0;
#X connect 17 0 44 0;
#X connect 19 0 7 1;
#X connect 20 0 2 0;
#X connect 21 0 5 0;
#X connect 22 0 7 0;
#X connect 23 0 19 0;
#X connect 24 0 19 1;
#X connect 25 0 62 0;
#X connect 26 0 78 0;
#X connect 27 0 29 0;
#X connect 27 1 30 0;
#X connect 27 2 31 0;
#X connect 27 3 32 0;
#X connect 27 4 33 0;
#X connect 27 5 17 0;
#X connect 28 0 39 0;
#X connect 28 1 43 0;
#X connect 28 2 42 0;
#X connect 28 3 41 0;
#X connect 28 4 40 0;
#X connect 34 0 14 0;
#X connect 35 0 10 0;
#X connect 36 0 9 0;
#X connect 37 0 12 0;
#X connect 38 0 13 0;
#X connect 45 0 18 0;
#X connect 46 0 11 1;
#X connect 47 0 1 1;
#X connect 48 0 8 1;
#X connect 49 0 6 1;
#X connect 50 0 4 1;
#X connect 51 0 20 0;
#X connect 52 0 21 0;
#X connect 53 0 22 0;
#X connect 54 0 23 0;
#X connect 55 0 24 0;
#X connect 56 0 59 0;
#X connect 59 0 77 0;
#X connect 59 1 61 0;
#X connect 60 0 59 1;
#X connect 61 0 79 0;
#X connect 61 1 65 0;
#X connect 61 2 26 0;
#X connect 62 0 56 0;
#X connect 62 1 56 1;
#X connect 63 0 58 0;
#X connect 64 0 57 0;
#X connect 67 0 20 0;
#X connect 68 0 21 0;
#X connect 69 0 22 0;
#X connect 70 0 23 0;
#X connect 71 0 24 0;
#X connect 72 0 67 0;
#X connect 73 0 68 0;
#X connect 74 0 69 0;
#X connect 75 0 70 0;
#X connect 76 0 71 0;
#X connect 77 0 79 0;
#X connect 77 1 66 0;
#X connect 77 2 79 1;
#X connect 78 0 28 0;
#X connect 79 0 27 0;
#X connect 79 1 26 1;
