#N canvas 1419 113 315 343 10;
#X obj 23 21 inlet;
#X msg 23 140 1;
#X msg 55 140 0;
#X obj 23 232 t b b;
#X obj 169 173 f;
#X obj 199 173 + 1;
#X msg 184 146 0;
#X obj 23 53 t b b;
#X obj 23 270 outlet;
#X obj 86 21 loadbang;
#X obj 86 65 / 44.1;
#X msg 213 122 9;
#X obj 169 195 select 9;
#X msg 86 44 512;
#X obj 23 202 metro 11.61;
#X obj 23 173 t a a;
#X obj 89 271 outlet;
#X obj 184 15 inlet;
#X obj 184 43 t b b;
#X obj 197 93 loadbang;
#X obj 181 226 print;
#X connect 0 0 7 0;
#X connect 1 0 15 0;
#X connect 2 0 15 0;
#X connect 3 0 8 0;
#X connect 3 1 4 0;
#X connect 4 0 5 0;
#X connect 4 0 12 0;
#X connect 5 0 4 1;
#X connect 6 0 4 1;
#X connect 7 0 1 0;
#X connect 7 1 6 0;
#X connect 9 0 13 0;
#X connect 10 0 14 1;
#X connect 11 0 12 1;
#X connect 12 0 2 0;
#X connect 13 0 10 0;
#X connect 14 0 3 0;
#X connect 15 0 16 0;
#X connect 15 1 14 0;
#X connect 17 0 18 0;
#X connect 18 0 6 0;
#X connect 18 1 2 0;
#X connect 19 0 11 0;
