#N canvas 1114 412 436 438 10;
#X obj 76 346 outlet;
#X obj 152 213 s write;
#X obj 95 212 s clear;
#X obj 18 6 inlet;
#X obj 18 235 t b b a;
#X obj -10 349 outlet;
#X obj -10 270 delay 100;
#X obj 110 87 t b;
#X obj 18 210 batch_file;
#X obj 18 60 route bang start;
#X obj 110 161 delay 9000;
#X obj 9 320 s play;
#X obj 18 134 del 200;
#X obj 18 94 t b b;
#X obj 139 347 outlet;
#X obj -10 293 t b b;
#X obj 18 162 t b b b;
#X connect 3 0 9 0;
#X connect 4 0 6 0;
#X connect 4 2 0 0;
#X connect 6 0 15 0;
#X connect 7 0 10 0;
#X connect 8 0 4 0;
#X connect 9 0 13 0;
#X connect 9 1 7 0;
#X connect 10 0 8 0;
#X connect 12 0 16 0;
#X connect 13 0 12 0;
#X connect 13 1 14 0;
#X connect 15 0 5 0;
#X connect 15 1 11 0;
#X connect 16 0 8 0;
#X connect 16 1 2 0;
#X connect 16 2 1 0;
