#N canvas 969 32 309 325 10;
#X obj -16 216 outlet;
#X obj -16 -69 inlet~;
#X obj -16 135 t b b;
#X obj 11 161 f;
#X obj 26 135 r ptime;
#X obj 11 184 s hotime;
#X obj -16 108 onebang;
#X obj 3 57 loadbang;
#X obj 4 81 delay 8;
#X obj -16 33 aubioOnset~ hfc 1024 256 -70 0.5;
#X connect 1 0 9 0;
#X connect 2 0 0 0;
#X connect 2 1 3 0;
#X connect 3 0 5 0;
#X connect 4 0 3 1;
#X connect 6 0 2 0;
#X connect 6 0 8 0;
#X connect 7 0 6 1;
#X connect 8 0 6 1;
#X connect 9 0 6 0;
