#N canvas 992 416 748 420 10;
#X declare -path abstractions -path data;
#X obj -39 160 s b_bass;
#X obj 44 162 s c_bass;
#X obj 185 161 s b_snare;
#X obj 313 162 s c_snare;
#X obj 415 152 s b_hihat;
#X obj 548 151 s c_hihat;
#X obj 27 -27 s ptime;
#X floatatom 54 -53 7 0 0 0 - - -;
#X obj 119 -145 bng 15 250 50 0 clear empty clear 17 7 0 12 -262144
-33289 -1;
#X obj 176 -145 bng 15 250 50 0 write empty write 17 7 0 12 -262144
-33289 -1;
#X text 121 -126 Write transcription;
#X obj 79 -27 s file;
#N canvas 0 22 450 300 write_files 0;
#X obj 103 67 r b_bass;
#X obj 291 70 r b_snare;
#X obj 52 21 r clear;
#X obj 104 21 r write;
#X obj 238 24 r clear;
#X obj 291 25 r write;
#X obj 50 142 r clear;
#X obj 102 144 r write;
#X obj 102 190 r b_hihat;
#X msg 52 43 2 clear;
#X msg 239 46 2 clear;
#X obj 52 97 writefile;
#X obj 156 20 r file;
#X obj 341 25 r file;
#X obj 151 144 r file;
#X msg 50 165 2 clear;
#X obj 239 101 writefile;
#X obj 50 221 writefile;
#X obj 167 190 r hotime;
#X msg 291 47 1 snarenf;
#X msg 105 41 1 bassnf;
#X msg 103 167 1 hihatnf;
#X obj 356 71 r bsotime;
#X obj 159 67 r bsotime;
#X connect 0 0 11 2;
#X connect 1 0 16 2;
#X connect 2 0 9 0;
#X connect 3 0 20 0;
#X connect 4 0 10 0;
#X connect 5 0 19 0;
#X connect 6 0 15 0;
#X connect 7 0 21 0;
#X connect 8 0 17 2;
#X connect 9 0 11 0;
#X connect 10 0 16 0;
#X connect 12 0 11 1;
#X connect 13 0 16 1;
#X connect 14 0 17 1;
#X connect 15 0 17 0;
#X connect 18 0 17 3;
#X connect 19 0 16 0;
#X connect 20 0 11 0;
#X connect 21 0 17 0;
#X connect 22 0 16 3;
#X connect 23 0 11 3;
#X restore 124 -106 pd write_files;
#N canvas 72 606 574 209 init 0;
#X obj 46 57 t b b b b;
#X msg 72 148 \; pd dsp 1 \;;
#X obj 31 129 s lb4;
#X obj 138 97 s lb1;
#X obj 118 127 s lb2;
#X obj 203 162 declare -path abstractions -path data;
#X obj 46 36 loadbang;
#X obj 72 187 print;
#X connect 0 0 2 0;
#X connect 0 1 1 0;
#X connect 0 2 4 0;
#X connect 0 3 3 0;
#X connect 1 0 7 0;
#X connect 6 0 0 0;
#X restore 48 -147 pd init;
#X obj -36 -53 oneshotplayer;
#N canvas 1032 62 245 340 next_file 0;
#X obj 66 300 outlet;
#X obj 136 165 s write;
#X obj 83 165 s clear;
#X obj 8 22 inlet;
#X obj 8 116 t b b b;
#X obj 8 189 t b b a;
#X obj -20 303 outlet;
#X obj -20 224 delay 100;
#X obj 68 80 t b;
#X obj 8 164 batch_file;
#X obj 8 50 route bang start;
#X obj 68 116 delay 9000;
#X obj -20 247 t b b;
#X obj 7 275 s play;
#X connect 3 0 10 0;
#X connect 4 0 9 0;
#X connect 4 1 2 0;
#X connect 4 2 1 0;
#X connect 5 0 7 0;
#X connect 5 2 0 0;
#X connect 7 0 12 0;
#X connect 8 0 11 0;
#X connect 9 0 5 0;
#X connect 10 0 4 0;
#X connect 10 1 8 0;
#X connect 11 0 9 0;
#X connect 12 0 6 0;
#X connect 12 1 13 0;
#X restore -35 -92 pd next_file;
#X msg -35 -118 start;
#X obj -35 -147 r lb4;
#X obj 101 25 onsets_aubio_bass_snare_fast;
#X obj -40 -26 s~ audioin;
#X obj 473 25 onsets_aubio_hihat_fast;
#X obj 101 0 r~ audioin;
#X obj 434 -4 r~ audioin;
#X obj -39 58 compute_features_filter_kick_fast;
#X obj 185 57 compute_features_filter_snare_fast;
#X obj 414 59 compute_features_filter_snare_fast;
#X obj -39 127 detect_drum_classes_online_kick;
#X obj -8 97 initKmeans_fast;
#X obj 185 126 detect_drum_classes_snare_fast;
#X obj 415 122 detect_drum_classes_hihat_fast;
#X connect 14 0 19 0;
#X connect 14 1 15 0;
#X connect 14 2 6 0;
#X connect 14 2 7 0;
#X connect 14 3 11 0;
#X connect 15 0 14 0;
#X connect 15 1 14 2;
#X connect 16 0 15 0;
#X connect 17 0 16 0;
#X connect 18 0 24 1;
#X connect 20 0 25 1;
#X connect 21 0 18 0;
#X connect 21 0 23 0;
#X connect 21 0 24 0;
#X connect 22 0 20 0;
#X connect 22 0 25 0;
#X connect 23 0 26 0;
#X connect 24 0 28 0;
#X connect 25 0 29 0;
#X connect 26 0 0 0;
#X connect 27 0 26 0;
#X connect 28 0 2 0;
#X connect 28 1 3 0;
#X connect 29 0 4 0;
#X connect 29 1 5 0;
